<?xml version="1.0" encoding="utf-8"?>
<!-- Generator: Adobe Illustrator 24.0.0, SVG Export Plug-In . SVG Version: 6.00 Build 0)  -->
<svg version="1.1" id="Layer_1" xmlns="http://www.w3.org/2000/svg" xmlns:xlink="http://www.w3.org/1999/xlink" x="0px" y="0px"
	 viewBox="0 0 167 112.6" style="enable-background:new 0 0 167 112.6;" xml:space="preserve">
<style type="text/css">
	.st0{fill:#002330;}
	.st1{fill:#41561F;}
	.st2{fill:#FFFFFF;}
	.st3{fill:#E2AF24;}
	.st4{fill:#9FAC1E;}
	.st5{font-family:'Raleway-Light';}
	.st6{font-size:18.6427px;}
	.st7{font-family:'Raleway-Regular';}
	.st8{font-family:'Raleway-Bold';}
</style>
<g>
	<g>
		<path class="st0" d="M92.5,44.5c0,15.3-12.4,27.7-27.7,27.7S37.1,59.8,37.1,44.5s12.4-27.7,27.7-27.7S92.5,29.2,92.5,44.5"/>
		<path class="st1" d="M88.4,54.9c-0.2,0.2-0.4,0.3-0.5,0.4c-0.9,1.3-2,2.5-2.6,3.9c-0.4,0.9-0.7,2.1,0.1,3.1
			c0.2,0.2,0.3,0.5,0.3,0.7c0,0.2-0.2,0.6-0.3,0.6c-1.5,0.4-2.9,0.1-4.1-0.7c-0.2-0.1-0.2-0.6-0.2-1c0-0.7,0-1.4,0.2-2.1
			c0.1-0.5,0.3-1,0.6-1.5c0.3-0.5,0.8-1,1.2-1.5c0.1-0.1,0.1-0.4,0-0.6c-0.2,0.2-0.3,0.5-0.5,0.8c-0.1,0-0.1,0-0.1-0.1
			c0.1-0.5,0.1-0.9,0.2-1.4c-0.1,0-0.1-0.1-0.2-0.1c-0.2,0.4-0.3,0.8-0.5,1.3c-0.4-1.2-0.1-2.1,0.3-3.1c0.1-0.3,0.3-0.8,0.3-1.1
			c0-1.3-0.1-2.7-0.1-4c-0.1-1.5,0.2-2.9,0.9-4.2c1-2,2-3.9,3-5.9c0.7-1.3,1.9-2.1,3.3-2.7c1.7-0.7,3.6-1.2,5.2-1.9
			c1.7-0.7,3.4-0.5,5.1-0.3c0.6,0.1,1.2,0.2,1.7,0.4c0.8,0.2,1.6,0.3,2.4,0.1c0.3-0.1,0.7,0,1,0.1c1.2,0.2,2.2,0,3-0.9
			c1.7-2.2,4.1-2.5,6.6-2.3c1.1,0.7,2.6,1,3.4,2.2c0.1,0.2,0.3,0.2,0.5,0.3c0.9,0.2,1.6,0.6,2,1.4c0.2,0.3,0.5,0.4,0.9,0.6
			c0.3,0.2,0.8,0.3,1.1,0.3c0.6,0,1-1,0.6-1.4c-0.5-0.6-1.1-1-1.7-1.5c-1.4-1-2.6-3-1.3-5.2c0.3-0.5,0.2-1.2,0.2-1.9
			c0-0.2,0.1-0.4,0.1-0.6c0.2,0.1,0.4,0.2,0.6,0.3c0.4,0.3,0.8,0.6,1.2,0.8c0.8,0.5,0.9,0.8,0.3,1.5c-0.9,1.2-0.9,1.8,0.3,2.8
			c1.2,1,2.5,1.9,3.6,3c1.6,1.5,1.5,3.6-0.1,5.1c-1,1-1.8,1.5-3.1,1.7c0.8,0.5,1.7,0.5,2.6,0.6c-0.6,0.5-1.3,0.7-2.8,0.5
			c-0.9-0.1-1.8-0.5-2.6-0.6c0.1,0.5,0.3,1,0.3,1.5c0.1,0.7-0.2,0.8-0.8,0.5c-0.4-0.2-0.9-0.5-1.4-0.5c-0.4-0.1-0.9,0.1-1.2,0.3
			c-0.8,0.6-1.6,0.9-2.5,0.4c-0.4-0.2-0.9-0.2-1.3-0.1c-0.2,0.1-0.5,0.3-0.7,0.6c-0.4,0.5-0.8,0.9-1.1,1.4c-0.1,0.1-0.1,0.1-0.2,0.1
			c-0.6,0.9-1.2,1.7-1.7,2.6c-0.2,0.3-0.4,0.7-0.6,0.9c-0.4,0.4-0.5,0.8-0.5,1.4c0.2,2.2,0.2,4.3,0.6,6.4c0.3,1.5,0.8,3,0.9,4.5
			c0.1,0.7,0.6,1.3,0.9,2c0.2,0.4,0.1,0.6-0.4,0.7c-1.2,0.1-2.3,0.2-3.4,0.2c-0.9,0-0.9-0.2-0.8-1c0.2-1.5-0.1-2.8-0.6-4.1
			c-0.2-0.5-0.6-1-0.9-1.5c-0.1,0-0.1,0.1-0.2,0.1c-0.2,0.8-0.5,1.7-0.8,2.5c-0.2,0.5-0.3,1-0.3,1.6c0,0.5,0.3,0.9,0.4,1.5
			c0.1,0.3,0.2,0.6,0.2,0.8c0,0.1-0.4,0.2-0.6,0.2c-1,0-2,0-3,0c-0.6,0-0.8-0.4-0.6-0.7c0.6-1.5,0.3-3,0.5-4.4
			c0.2-1.4,0.7-2.7,1-4.1c0.2-1,0.2-2,0.3-3c0.1-0.5-0.2-0.7-0.7-0.5c-1,0.3-2,0.6-3,0.9c-0.6,0.2-1.3,0.4-1.9,0.5
			c-0.9,0.1-1.9,0.1-2.9,0.2c-0.2,0-0.5,0.1-0.5,0.3c-0.3,0.9-0.6,1.9-0.5,2.9c0.2,1.4,0.4,2.7,0.8,4.1c0.3,1,0.5,1.9,1,2.8
			c0.4,0.6,0.1,1.1-0.7,1.1c-1.1,0-2.2,0-3.3,0c-0.6,0-1.1-0.7-1-1.3c0.1-1,0.2-2.1,0.3-3.1c0-0.3-0.1-0.7-0.2-1.1
			c-0.1-0.5-0.2-1-0.3-1.5C88.7,56.3,88.5,55.7,88.4,54.9 M83.8,46c-0.8,1.6-1.4,5.9-0.1,9.1c0.5-1.3,0.8-2.7,0.6-4.1
			C84.1,49.3,83.9,47.6,83.8,46"/>
		<path class="st1" d="M109.3,64.2c-0.1-1.8,0.2-2.2,1.9-2.8c0.5-0.2,0.9-0.4,1.4-0.7c0.5-0.2,0.9-0.5,1.5-0.8
			c0.2,0.7,0.3,1.3,0.5,2c0.1,0.6,0.1,1.3,0.2,1.9c0.1,0.2,0.3,0.5,0.5,0.5c0.9,0.1,1.7,0,2.8,0c-0.2-0.5-0.3-0.9-0.6-1.3
			c-0.6-0.8-0.9-1.6-0.5-2.6c0.1-0.3,0.1-0.7,0.1-1c0.6-0.1,1.3-0.3,2.1-0.5c-0.2,0.6-0.3,1.3-0.6,1.7c-0.6,1-0.3,2.2-0.5,3.2
			c0,0.1,0.2,0.3,0.3,0.3c0.9,0.1,1.9,0,3,0c-0.2-0.5-0.5-0.9-0.6-1.3c-0.1-0.3-0.2-0.7-0.1-0.9c0.5-1,1-1.9,1.5-3
			c1.1,0.8,2.3,1.6,3.3,2.6c0.5,0.5,0.6,1.3,0.7,2c0.1,0.6,0.2,0.8,0.8,0.7c0.8,0,1.5,0,2.4,0c-0.3-0.7-0.6-1.3-0.9-1.9
			c-0.1-0.2-0.3-0.5-0.3-0.7c0-1.1-0.7-1.9-1.5-2.6c-0.6-0.5-1-1.1-1.6-1.6c-0.6-0.7-0.7-1.6-0.7-2.4c0-0.2,0.1-0.5,0.2-0.7
			c0.3-0.5,0.6-1,0.9-1.6c0.1-0.1,0.2-0.3,0.3-0.3c0.7-0.3,1.4-0.5,2-0.8c0.8-0.3,1.6-0.8,2.7-1.3c-0.3-0.3-0.6-0.5-0.9-0.6
			c0.5-0.2,0.9-0.4,1.4-0.6c2-1.3,1.9-4.6-0.2-5.8c-0.8-0.5-1.6-0.5-2.4,0.1c-0.5,0.4-1,0.9-1.5,1.3c-0.6,0.6-1.2,0.6-1.7,0.2
			c-0.2,0.2-0.4,0.3-0.6,0.5c0.9,0.6,2.2,0.6,3.1,0.1c0.3-0.2,0.7-0.5,1-0.8c0.5-0.3,0.9-0.6,1.5-0.1c0.5,0.4,0.5,1.1,0.2,1.7
			c-0.5,1-2.6,1.2-3.3,0.6c-0.6-0.6-1.3-0.3-2-0.1c-0.2,0.1-0.5,0.2-0.7,0.3c-0.8,0.5-1.5,0.6-2.3,0.1c-0.5-0.4-1.2-0.3-1.8-0.1
			c-0.4,0.2-0.5,0.3-0.6,0.9c-0.1,0.8-0.4,1.5-0.6,2.3c-0.5-0.1-1-0.1-1.6-0.2c-1.4-0.3-2.7-0.1-3.8,0.9c-1,1-2,1.9-3.1,2.9
			c-0.5,0.5-1,0.6-1.7,0.8c-1.2,0.2-2.3,0.6-3.5,1c-0.2,0.1-0.4,0.3-0.5,0.5c0.1,0.3,0.2,0.5,0.2,0.8c1.4-1.5,3.1-1.9,5.1-1.2
			c-0.6,1.6-0.8,3.6-2.9,4.5c-0.6,0.2-1,0.7-1.1,1.5c0,0.2-0.2,0.4-0.2,0.6c-0.5,1,0,2,1.2,2C108.1,64.3,108.7,64.2,109.3,64.2"/>
		<path class="st2" d="M54.8,34.6c0-1.7-1-3-3.1-3.1L47,31.5L47,40.3h2.6v-2.8h0.9l1.2,2.8l3,0.1l-1.5-3.1
			C53.9,36.9,54.8,36.1,54.8,34.6 M51.3,35.2h-4l2.4-0.3v-1h1.6c0.5,0,0.9,0.2,0.9,0.7C52.2,35,51.7,35.2,51.3,35.2"/>
		<path class="st2" d="M59.6,34l-0.1,4c-0.2,0.2-0.5,0.5-1,0.5c-0.6,0-0.9-0.2-0.9-0.9l0.1-3.6h-2.3l-0.1,4.6c0,1.1,0.6,2,2.1,2
			c1.1,0,1.8-0.5,2.2-0.9v0.7h2.3l0.1-6.4H59.6z"/>
		<path class="st2" d="M65.1,34.8v-0.7h-2.3l-0.1,6.4H65l0.1-3.9c0.3-0.3,0.9-0.5,1.4-0.5c0.2,0,0.4,0.1,0.5,0.1v-2.3
			C66.3,33.9,65.5,34.3,65.1,34.8"/>
		<path class="st2" d="M70.2,34c-0.9,0-2.2,0.2-3,0.9l0.8,1.5c0.5-0.4,1.2-0.6,1.7-0.6c0.8,0,1.2,0.3,1.2,0.8v0.6
			c-0.3-0.5-1-0.7-1.9-0.7c-0.9,0-2.2,0.4-2.2,2c0,1.5,1.2,2.2,2.2,2.2c0.8,0,1.6-0.3,1.9-0.8v0.6h2.4l0.1-3.9
			C73.3,34.5,71.8,34,70.2,34 M70.9,38.8c-0.2,0.2-0.6,0.3-0.9,0.3c-0.4,0-0.8-0.1-0.8-0.5c0-0.4,0.5-0.5,0.8-0.5s0.8,0.1,0.9,0.3
			V38.8z"/>
		<polygon class="st2" points="74.2,31.7 74,40.5 76.4,40.6 76.5,31.8 		"/>
		<polygon class="st3" points="53.2,44 53.2,41.6 46.6,41.6 46.5,50.4 53.1,50.5 53.1,50.5 53.1,50.1 53.1,48.2 49.2,48.1 
			49.2,47.4 47.1,47.1 53.1,47.2 53.1,44.9 49.2,44.8 49.2,43.9 		"/>
		<polygon class="st3" points="60,50.5 58,47.2 60,44.2 57.4,44.1 56.5,45.6 55.7,44.1 53.1,44.1 55,47.2 53.1,50.1 52.9,50.5 
			53.1,50.5 55.5,50.5 56.5,48.8 57.5,50.5 60,50.6 60.1,50.6 		"/>
		<path class="st3" d="M64.3,44c-0.6,0-1.3,0.2-1.8,0.8v-0.7h-2.4L60,50.5v0.1V53h2.3l0.1-3.1c0.5,0.6,1.1,0.9,1.7,0.9
			c1.6,0,2.8-1.2,2.8-3.3C67,45.2,65.8,44,64.3,44 M63.4,48.6c-0.2,0-0.5-0.1-0.7-0.2c-0.1,0-0.1-0.1-0.1-0.1
			c-0.4-0.3-1.3-1-1.5-1.2c0.2,0.2,1,0.5,1.4,0.7v-1.2c0.2-0.3,0.7-0.4,1-0.4c0.6,0,1.2,0.5,1.2,1.3C64.6,48.2,64,48.6,63.4,48.6"/>
		<polygon class="st3" points="67.4,41.8 67.3,50.6 69.7,50.6 69.7,41.8 		"/>
		<path class="st3" d="M73.6,44.1c-2.2,0-3.6,1.5-3.6,3.3c0,1.8,1.3,3.4,3.5,3.4c2.3,0,3.6-1.6,3.6-3.3
			C77.2,45.7,75.8,44.1,73.6,44.1 M73.6,48.7c-0.7,0-1.1-0.6-1.1-1.3s0.4-1.2,1.2-1.2s1.1,0.6,1.1,1.3
			C74.7,48.2,74.3,48.8,73.6,48.7"/>
		<path class="st3" d="M79.9,45v-0.7h-2.3l-0.1,6.4h2.4l0.1-4c0.2-0.3,0.9-0.5,1.4-0.5c0.2,0,0.4,0.1,0.5,0.1v-2.3
			C81.1,44.2,80.3,44.6,79.9,45"/>
		<path class="st3" d="M88.4,47.8c0-2.3-1.4-3.6-3.3-3.7c-2,0-3.4,1.5-3.5,3.3c0,2.1,1.5,3.4,3.5,3.4c0.9,0,2-0.2,2.7-0.8l-0.9-1.5
			c-0.3,0.3-1.1,0.5-1.5,0.5c-0.8,0-1.2-0.4-1.3-0.8l4.3,0.1V47.8z M84.3,46.8c-0.1,0.2-0.3,0.5-0.3,1c0,0-0.2-0.5,0.1-1.2
			c0-0.1,0.1-0.1,0.1-0.1c0.1-0.2,0.4-0.5,0.9-0.5c0.8,0,1,0.5,1,0.8H84.3z"/>
		<path class="st3" d="M91,45.1v-0.7h-2.3l-0.1,6.4H91l0.1-3.9c0.2-0.3,0.9-0.5,1.4-0.5c0.2,0,0.4,0.1,0.5,0.1v-2.3
			C92.3,44.3,91.5,44.7,91,45.1"/>
		<path class="st3" d="M95.2,46.3c0-0.1,0.2-0.3,0.6-0.3c0.8,0,1.5,0.3,1.9,0.7l0.9-1.6c-0.8-0.5-1.7-0.8-2.7-0.9
			c-1.9,0-2.9,1-2.9,2.2c0,2.7,3.6,1.9,3.6,2.5c0,0.2-0.2,0.3-0.6,0.3c-0.7,0-1.7-0.4-2.3-0.8L92.7,50c0.7,0.6,1.9,1,3.1,1
			c1.9,0,3-0.9,3-2.2C98.8,46.2,95.2,46.8,95.2,46.3"/>
		<path class="st2" d="M47.6,56.6v-2.4h0.9v2.4c0,0.6,0.3,0.9,0.9,0.9c0.6,0,0.9-0.3,0.9-0.9v-2.4h0.9v2.4c0,1-0.6,1.7-1.8,1.6
			C48.1,58.2,47.5,57.5,47.6,56.6"/>
		<path class="st2" d="M53.3,56.3c0-1.3,1-2,2.1-2c0.8,0,1.3,0.4,1.6,0.9l-0.7,0.3c-0.2-0.3-0.5-0.5-0.9-0.5c-0.7,0-1.2,0.5-1.2,1.3
			s0.5,1.3,1.2,1.3c0.3,0,0.7-0.2,0.8-0.3v-0.5h-1v-0.8H57v1.5c-0.4,0.5-1,0.8-1.7,0.8C54.2,58.3,53.3,57.5,53.3,56.3"/>
		<polygon class="st2" points="61.5,54.3 60.5,54.3 58.9,58.3 59.9,58.3 60,58.1 61,55.2 62,58.1 62.1,58.3 63,58.3 		"/>
		<polygon class="st2" points="78.4,54.3 77.3,54.3 75.7,58.3 76.7,58.3 76.7,58.1 77.8,55.2 78.8,58.1 78.9,58.3 79.8,58.3 		"/>
		<polygon class="st2" points="67.8,58.4 65.9,55.7 65.8,58.4 65,58.4 65.1,54.3 66,54.3 67.7,56.9 67.8,54.4 68.6,54.4 68.6,58.4 
					"/>
		<path class="st2" d="M71,58.4l0.1-4h1.6c1.2,0,2.1,0.8,2.1,2c0,1.2-0.9,2-2.1,2L71,58.4z M73.8,56.4c0-0.7-0.4-1.3-1.2-1.3h-0.7
			v2.5h0.7C73.3,57.7,73.8,57.1,73.8,56.4"/>
		<path class="st4" d="M77.8,38.2c2.3-0.5,4.4-1.3,6.4-2.3c2-1,4-2.2,5.8-3.4l1.3-1c0.2-0.2,0.5-0.3,0.7-0.5l0.6-0.5
			c0.4-0.3,0.9-0.7,1.3-1.1l1.2-1.2l0.6-0.6l0.6-0.6l1.2-1.2c0.8-0.8,1.5-1.7,2.2-2.6c-0.8,0.8-1.5,1.7-2.3,2.5l-1.2,1.2l-0.6,0.6
			L95.1,28l-1.3,1.1c-0.4,0.3-0.9,0.7-1.3,1l-0.6,0.5c-0.2,0.2-0.5,0.3-0.7,0.5l-1.4,0.9c-1.9,1.2-3.8,2.3-5.9,3.2
			c-2,0.9-4.2,1.6-6.3,2L77.8,38.2z"/>
		<path class="st4" d="M80.2,38.6c0,0,1,4.8,8.3,2.4C88.5,40.9,85,36.2,80.2,38.6"/>
		<path class="st4" d="M79.6,35.9c0,0,4.8,1,5.5-6.7C85,29.3,79.4,30.5,79.6,35.9"/>
		<path class="st4" d="M85.6,33.6c0,0,4.2,0.1,3.5-6.6C89.2,27,84.6,29,85.6,33.6"/>
		<path class="st4" d="M91,29.7c0,0,3-0.2,2-4.9C93.1,24.7,89.9,26.5,91,29.7"/>
		<path class="st4" d="M94.8,27c0,0,3-0.3,2-4.9C96.7,22,93.6,23.8,94.8,27"/>
		<path class="st4" d="M99.9,22.4c0,0,3,0.6,3.4-4.1C103.3,18.3,99.7,19.1,99.9,22.4"/>
		<path class="st4" d="M85.5,36.1c0,0,0.9,4.4,7.6,2.2C93,38.3,89.9,34,85.5,36.1"/>
		<path class="st4" d="M89.8,33.4c0,0,0.9,4.4,7.6,2.2C97.4,35.5,94.2,31.2,89.8,33.4"/>
		<path class="st4" d="M93.5,30.6c0,0,0.8,3.6,6.2,1.7C99.7,32.4,97.2,28.9,93.5,30.6"/>
		<path class="st4" d="M96.9,27.9c0,0,0.6,3.1,5.4,1.5C102.2,29.4,100,26.4,96.9,27.9"/>
		<path class="st4" d="M70.8,73.5c-16,3.2-31.6-7.2-34.8-23.1c-3.2-16,7.2-31.6,23.1-34.8c10.3-2.1,21,1.5,28,9.4
			c0.5,0.6,0.5,1.6-0.1,2.1c-0.6,0.5-1.6,0.5-2.1-0.1c-6.3-7.1-16-10.4-25.2-8.5C45.4,21.4,36.1,35.5,39,49.8s16.9,23.7,31.3,20.8
			c4.9-1,9.4-3.3,13-6.8c0.6-0.6,1.5-0.5,2.1,0.1c0.6,0.6,0.5,1.5-0.1,2.1C81.3,69.8,76.3,72.4,70.8,73.5"/>
	</g>
</g>
<g>
	<text transform="matrix(1 0 0 1 4.1785 108.2875)"><tspan x="0" y="0" class="st2 st5 st6">blissful</tspan><tspan x="59.7" y="0" class="st2 st7 st6"> </tspan><tspan x="64.4" y="0" class="st2 st8 st6">enjoyment</tspan></text>
	<polygon class="st4" points="135.7,90.1 130.8,96.1 140.5,96.1 	"/>
</g>
</svg>
