<?xml version="1.0" encoding="utf-8"?>
<!-- Generator: Adobe Illustrator 24.0.0, SVG Export Plug-In . SVG Version: 6.00 Build 0)  -->
<svg version="1.1" id="Layer_1" xmlns="http://www.w3.org/2000/svg" xmlns:xlink="http://www.w3.org/1999/xlink" x="0px" y="0px"
	 viewBox="0 0 167 112.6" style="enable-background:new 0 0 167 112.6;" xml:space="preserve">
<style type="text/css">
	.st0{fill:#FFFFFF;stroke:#FFFFFF;}
	.st1{fill:#D03000;}
	.st2{fill:#002330;}
	.st3{fill:#41561F;}
	.st4{fill:#FFFFFF;}
	.st5{fill:#E2AF24;}
	.st6{fill:#9FAC1E;}
</style>
<g id="Group_3351" transform="translate(-323.5 -53)">
	<path id="Path_1" class="st0" d="M346.4-14.1c-1.7,0.1-3.4-0.4-4.7-1.5c-1.2-1-1.8-2.6-1.8-4.7v-16.2l-3.2-0.5v-0.9h3.2v-3.7
		l4.5-1.1v4.9h7.7v0.9l-7.7,0.5v16.1c0,3.2,1.1,4.8,3.4,4.8c0.5,0,0.9-0.1,1.4-0.2c0.4-0.1,0.7-0.3,1-0.4c0.2-0.1,0.3-0.2,0.5-0.3
		l0.6,0.7C349.9-14.7,348.2-14,346.4-14.1z M355.9-14.5v-22l-3.1-0.5v-0.9h7.6v3.5c1.9-2.6,4-3.9,6.4-3.9c1.1,0,2.1,0.3,3,0.9
		c0.8,0.5,1.3,1.5,1.3,2.5c0,0.7-0.3,1.4-0.8,2c-0.5,0.5-1.3,0.8-2,0.8c-0.9,0-1.8-0.4-2.3-1.1c0.3-0.4,0.5-0.9,0.5-1.3
		c0-0.5-0.2-0.9-0.5-1.2c-0.4-0.3-0.9-0.5-1.4-0.5c-0.7,0-1.4,0.4-1.9,0.9c-0.9,0.8-1.6,1.7-2.2,2.7v16.8l3.6,0.4v0.9H355.9z
		 M377.4-43.1c-0.8,0-1.6-0.3-2.2-0.9c-0.6-0.6-0.9-1.3-0.9-2.1c0-0.8,0.3-1.6,0.9-2.1c0.6-0.6,1.4-0.9,2.2-0.9
		c0.8,0,1.5,0.3,2.1,0.9c0.6,0.6,0.9,1.3,0.9,2.1c0,0.8-0.3,1.6-0.9,2.1C379-43.4,378.2-43,377.4-43.1z M372.7-14.5v-0.9l3.1-0.4
		v-20.6l-3.1-0.5v-0.9h7.6v21.9l3.1,0.4v0.9H372.7z M385.3-2.7l3.1-0.4v-33.3l-8.1-0.5v-0.9H393v4.7c0.7-1.5,1.7-2.8,3-3.8
		c1.3-0.9,2.9-1.4,4.6-1.4c2,0,3.9,0.5,5.6,1.5c1.6,1,2.9,2.5,3.8,4.2c0.9,2,1.4,4.2,1.4,6.4c0.1,2.2-0.4,4.4-1.4,6.4
		c-0.8,1.7-2.1,3.2-3.8,4.2c-1.7,1-3.6,1.5-5.6,1.5c-1.6,0-3.2-0.4-4.6-1.4c-1.3-1-2.4-2.3-3-3.8v16.1l4.2,0.4v0.9h-11.9V-2.7z
		 M400.1-15.2c4.2,0,6.3-2.9,6.3-8.7v-4.5c0-5.8-2.1-8.7-6.3-8.7c-1.3,0-2.6,0.4-3.6,1.1c-1.1,0.8-2,1.9-2.6,3.1
		c-0.6,1.3-1,2.7-1,4.2v4.8c0,1.5,0.3,3,0.9,4.3c0.6,1.3,1.4,2.4,2.6,3.2C397.5-15.6,398.8-15.2,400.1-15.2z M440.8-43.1
		c-0.8,0-1.6-0.3-2.2-0.9c-0.6-0.6-0.9-1.3-0.9-2.1c0-0.8,0.3-1.6,0.9-2.1c0.6-0.6,1.4-0.9,2.2-0.9c0.8,0,1.5,0.3,2.1,0.9
		c0.6,0.6,0.9,1.3,0.9,2.1c0,0.8-0.3,1.6-0.9,2.1C442.4-43.4,441.6-43,440.8-43.1z M436.1-14.5v-0.9l3.1-0.4v-20.6l-3.1-0.5v-0.9
		h7.6v21.9l4.5,0.4v0.9H436.1z M449-15.4l3.1-0.4v-20.6l-3.1-0.5v-0.9h7.6v4.9c1-1.5,2.4-2.8,3.9-3.8c1.4-0.9,3.1-1.4,4.9-1.4
		c1.8-0.1,3.7,0.5,5.1,1.6c1.3,1.2,2,3,1.9,4.8v15.9l3.1,0.4v0.9h-10.3v-0.9l2.7-0.4v-15.8c0.1-1.3-0.3-2.5-0.9-3.6
		c-0.7-0.9-1.8-1.4-2.9-1.3c-1.5,0-2.9,0.6-4,1.5c-1.3,1.1-2.5,2.3-3.4,3.7v15.5l2.7,0.4v0.9H449V-15.4z"/>
	<circle id="Ellipse_1" class="st1" cx="423.4" cy="-25" r="4.5"/>
</g>
<g>
	<path class="st2" d="M97.9,54.5c0,26.3-21.3,47.6-47.6,47.6S2.7,80.8,2.7,54.5C2.7,28.2,24,6.9,50.3,6.9S97.9,28.2,97.9,54.5"/>
	<path class="st3" d="M90.8,72.4c-0.4,0.4-0.7,0.5-0.8,0.7c-1.5,2.2-3.4,4.3-4.5,6.7c-0.7,1.5-1.2,3.6,0.1,5.3
		c0.3,0.4,0.5,0.8,0.5,1.2c0,0.4-0.3,1-0.6,1.1c-2.5,0.7-4.9,0.1-7.1-1.2C78.1,86,78,85.1,78,84.4c0-1.2,0-2.4,0.3-3.6
		c0.2-0.9,0.5-1.8,1-2.5c0.6-0.9,1.4-1.7,2-2.5c0.2-0.2,0.1-0.7,0-1c-0.3,0.4-0.5,0.8-0.8,1.3c-0.1,0-0.1,0-0.2-0.1
		c0.1-0.8,0.2-1.6,0.3-2.4c-0.1,0-0.2-0.1-0.3-0.1c-0.3,0.7-0.5,1.4-0.8,2.2c-0.7-2-0.2-3.6,0.5-5.3c0.2-0.6,0.5-1.3,0.5-1.9
		c0-2.3-0.2-4.6-0.2-6.9c-0.1-2.5,0.4-5,1.6-7.3c1.7-3.4,3.4-6.7,5.1-10.1c1.2-2.3,3.3-3.6,5.6-4.6c3-1.2,6.1-2.1,9-3.3
		c2.9-1.2,5.8-0.9,8.7-0.5c1,0.1,2,0.4,2.9,0.7c1.4,0.3,2.8,0.6,4.2,0.2c0.5-0.1,1.2,0,1.8,0.1c2,0.3,3.8,0,5.1-1.6
		c3-3.7,7-4.3,11.4-4c1.9,1.2,4.4,1.7,5.8,3.8c0.2,0.3,0.6,0.4,0.9,0.5c1.5,0.3,2.7,1,3.5,2.4c0.3,0.5,0.9,0.7,1.5,1
		c0.6,0.3,1.3,0.6,1.9,0.5c1.1,0,1.8-1.7,1.1-2.4c-0.9-1-1.9-1.8-3-2.6c-2.4-1.7-4.4-5.1-2.2-8.9c0.5-0.9,0.3-2.1,0.4-3.2
		c0-0.3,0.1-0.7,0.2-1c0.3,0.2,0.7,0.4,1,0.6c0.7,0.5,1.4,1,2.1,1.4c1.3,0.8,1.5,1.3,0.5,2.5c-1.6,2-1.5,3.1,0.5,4.8
		c2.1,1.7,4.3,3.3,6.2,5.2c2.7,2.6,2.5,6.1-0.2,8.7c-1.8,1.7-3.1,2.5-5.4,3c1.4,0.9,3,0.9,4.5,1c-1,0.9-2.3,1.2-4.8,0.8
		c-1.6-0.2-3.1-0.8-4.5-1.1c0.2,0.8,0.5,1.7,0.6,2.6c0.1,1.2-0.3,1.4-1.4,0.8c-0.7-0.4-1.6-0.8-2.4-0.8c-0.7-0.1-1.5,0.2-2.1,0.6
		c-1.4,1-2.7,1.5-4.3,0.7c-0.7-0.3-1.6-0.3-2.3-0.2c-0.4,0.1-0.8,0.6-1.2,1c-0.7,0.8-1.3,1.6-1.9,2.4c-0.1,0.1-0.2,0.1-0.3,0.2
		c-1,1.5-2,3-3,4.5c-0.4,0.6-0.7,1.2-1.1,1.6c-0.7,0.7-0.9,1.4-0.8,2.4c0.4,3.7,0.4,7.4,1.1,11c0.5,2.6,1.3,5.1,1.6,7.8
		c0.1,1.2,1.1,2.3,1.6,3.5c0.3,0.7,0.1,1.1-0.7,1.2c-2,0.1-3.9,0.3-5.9,0.4c-1.5,0-1.6-0.4-1.4-1.8c0.4-2.5-0.1-4.8-1-7.1
		c-0.4-0.9-1-1.7-1.5-2.5c-0.1,0-0.2,0.1-0.3,0.1c-0.4,1.4-0.9,2.9-1.3,4.3c-0.3,0.9-0.6,1.8-0.6,2.8c0,0.8,0.5,1.6,0.7,2.5
		c0.1,0.5,0.3,1,0.3,1.4c0,0.2-0.7,0.4-1.1,0.4c-1.7,0-3.4,0-5.2,0c-1,0-1.3-0.7-1.1-1.2c1.1-2.5,0.6-5.1,0.9-7.6
		c0.3-2.4,1.2-4.7,1.7-7c0.3-1.7,0.4-3.5,0.6-5.2c0.1-0.8-0.3-1.2-1.2-0.9c-1.7,0.5-3.4,1.1-5.1,1.6c-1.1,0.3-2.2,0.7-3.3,0.9
		c-1.6,0.2-3.3,0.1-4.9,0.3c-0.3,0-0.8,0.2-0.9,0.5c-0.5,1.6-1.1,3.2-0.9,5c0.3,2.4,0.7,4.7,1.3,7.1c0.5,1.7,0.9,3.3,1.8,4.8
		c0.7,1,0.1,1.9-1.2,1.9c-1.9,0-3.7,0-5.6,0c-1,0-1.9-1.2-1.8-2.2c0.2-1.8,0.4-3.6,0.6-5.4c0-0.6-0.2-1.2-0.3-1.9
		c-0.2-0.8-0.4-1.7-0.6-2.5C91.4,74.7,91.1,73.7,90.8,72.4 M82.9,57c-1.3,2.7-2.4,10.2-0.2,15.7c0.8-2.3,1.3-4.6,1.1-7
		C83.5,62.8,83.2,59.8,82.9,57"/>
	<path class="st3" d="M126.8,88.4c-0.1-3.1,0.4-3.8,3.2-4.8c0.8-0.3,1.6-0.7,2.4-1.2c0.8-0.4,1.5-0.9,2.5-1.4
		c0.3,1.2,0.6,2.3,0.8,3.4c0.2,1.1,0.2,2.2,0.3,3.3c0.1,0.3,0.5,0.8,0.8,0.8c1.5,0.1,3,0,4.8,0c-0.4-0.9-0.6-1.6-1-2.2
		c-1-1.4-1.6-2.8-0.8-4.5c0.2-0.5,0.2-1.2,0.2-1.8c1.1-0.2,2.2-0.5,3.6-0.8c-0.4,1.1-0.6,2.2-1.1,3c-1,1.8-0.6,3.7-0.9,5.5
		c0,0.2,0.4,0.6,0.6,0.6c1.6,0.1,3.2,0,5.2,0c-0.4-0.9-0.8-1.6-1-2.3c-0.2-0.5-0.4-1.2-0.2-1.6c0.8-1.7,1.7-3.3,2.6-5.1
		c1.9,1.4,4,2.7,5.7,4.4c0.8,0.8,1.1,2.3,1.2,3.5c0.1,1,0.3,1.3,1.3,1.2c1.3,0,2.6,0,4.2,0c-0.6-1.2-1.1-2.2-1.5-3.2
		c-0.2-0.4-0.5-0.8-0.5-1.2c0-1.9-1.2-3.2-2.5-4.4c-1-0.9-1.8-1.9-2.7-2.8c-1-1.2-1.2-2.7-1.2-4.2c0-0.4,0.2-0.8,0.4-1.2
		c0.5-0.9,1.1-1.8,1.6-2.7c0.1-0.2,0.3-0.5,0.6-0.6c1.2-0.5,2.4-0.8,3.5-1.4c1.4-0.6,2.8-1.4,4.6-2.3c-0.6-0.5-1.1-0.8-1.6-1.1
		c0.8-0.4,1.6-0.7,2.4-1.1c3.5-2.2,3.3-7.9-0.3-9.9c-1.4-0.8-2.8-0.8-4.1,0.2c-0.9,0.7-1.7,1.5-2.5,2.3c-1.1,1-2,1.1-3,0.4
		c-0.4,0.3-0.7,0.6-1.1,0.9c1.5,1,3.8,1.1,5.3,0.1c0.6-0.4,1.2-0.9,1.8-1.4c0.8-0.6,1.6-1,2.5-0.2c0.8,0.7,0.9,1.9,0.4,2.9
		c-0.9,1.7-4.5,2.1-5.6,1c-1-1.1-2.3-0.5-3.4-0.2c-0.4,0.1-0.8,0.3-1.2,0.6c-1.3,0.8-2.5,1.1-3.9,0.1c-0.9-0.7-2-0.5-3.1-0.1
		c-0.7,0.3-0.9,0.6-1,1.5c-0.1,1.3-0.7,2.5-1.1,4c-0.8-0.1-1.8-0.2-2.7-0.4c-2.4-0.5-4.6-0.2-6.5,1.6c-1.8,1.7-3.5,3.3-5.3,5
		c-0.8,0.8-1.8,1.1-2.9,1.3c-2,0.4-4,1-6,1.7c-0.4,0.1-0.7,0.6-0.9,0.8c0.2,0.5,0.3,0.9,0.4,1.4c2.4-2.6,5.4-3.2,8.8-2
		c-1.1,2.8-1.4,6.2-5,7.7c-1.1,0.4-1.8,1.2-1.9,2.5c0,0.4-0.3,0.7-0.4,1.1c-0.9,1.8,0,3.4,2,3.5C124.7,88.5,125.7,88.4,126.8,88.4"
		/>
	<path class="st4" d="M33.2,37.5c0-2.9-1.8-5.2-5.4-5.3l-8-0.1l-0.1,15.2l4.5,0l0-4.8l1.6,0l2,4.8l5.2,0.1L30.4,42
		C31.6,41.4,33.2,40.1,33.2,37.5 M27.1,38.6h-6.9l4.2-0.6l0-1.8l2.8,0c0.8,0,1.5,0.4,1.5,1.2C28.6,38.2,27.8,38.6,27.1,38.6"/>
	<path class="st4" d="M41.4,36.5l-0.1,6.8c-0.3,0.4-0.8,0.9-1.7,0.8c-1,0-1.6-0.4-1.6-1.6l0.1-6.1l-4,0L34,44.3c0,1.9,1,3.4,3.6,3.5
		c1.9,0,3.1-0.8,3.7-1.5l0,1.2l4,0l0.1-11L41.4,36.5z"/>
	<path class="st4" d="M50.8,37.8l0-1.2l-4,0l-0.1,11l4,0l0.1-6.7c0.5-0.5,1.6-0.8,2.4-0.8c0.4,0,0.7,0.1,0.9,0.1l0-3.9
		C52.9,36.3,51.5,37,50.8,37.8"/>
	<path class="st4" d="M59.6,36.4c-1.6,0-3.7,0.4-5.1,1.6l1.3,2.5c0.9-0.7,2-1.1,3-1c1.3,0,2,0.6,2,1.4l0,1.1
		c-0.6-0.8-1.8-1.2-3.3-1.2c-1.6,0-3.7,0.7-3.8,3.5c0,2.5,2.1,3.7,3.7,3.7c1.3,0,2.7-0.5,3.3-1.3l0,1.1l4.1,0l0.1-6.7
		C65,37.4,62.3,36.4,59.6,36.4 M60.8,44.7c-0.3,0.4-1,0.6-1.6,0.6c-0.7,0-1.4-0.2-1.4-0.9c0-0.7,0.8-0.9,1.4-0.9
		c0.6,0,1.3,0.2,1.6,0.6L60.8,44.7z"/>
	<polygon class="st4" points="66.4,32.5 66.2,47.7 70.3,47.8 70.4,32.6 	"/>
	<polygon class="st5" points="30.4,53.6 30.4,49.6 19.1,49.5 18.9,64.7 30.3,64.8 30.3,64.8 30.3,64.2 30.3,60.8 23.5,60.7 
		23.5,59.5 19.9,59 30.3,59.1 30.2,55.1 23.5,55 23.6,53.5 	"/>
	<polygon class="st5" points="42.1,64.8 38.7,59.2 42,53.9 37.6,53.8 36.1,56.4 34.7,53.8 30.3,53.8 33.5,59.1 30.3,64.2 29.9,64.8 
		30.3,64.8 34.3,64.8 36.1,61.9 37.8,64.8 42.1,64.9 42.2,64.9 	"/>
	<path class="st5" d="M49.4,53.7c-1.1,0-2.2,0.4-3.1,1.4l0-1.2l-4.1,0l-0.1,10.9v0.1l0,4.2l4,0l0.1-5.4c0.9,1.1,1.9,1.5,3,1.5
		c2.7,0,4.8-2,4.8-5.7C54.1,55.7,52.1,53.7,49.4,53.7 M47.9,61.6c-0.3,0-0.8-0.1-1.2-0.4c-0.1,0-0.1-0.1-0.2-0.1
		c-0.7-0.5-2.3-1.8-2.6-2.1c0.4,0.3,1.7,0.8,2.4,1.2l0-2.1c0.4-0.5,1.2-0.7,1.7-0.7c1.1,0,2,0.8,2,2.2C49.9,60.8,49,61.6,47.9,61.6"
		/>
	<polygon class="st5" points="54.8,49.8 54.6,65 58.7,65 58.8,49.8 	"/>
	<path class="st5" d="M65.5,53.8c-3.8,0-6.1,2.6-6.1,5.7c0,3.1,2.2,5.8,6,5.8c3.9,0,6.1-2.7,6.2-5.7C71.6,56.6,69.3,53.8,65.5,53.8
		 M65.4,61.7c-1.2,0-1.9-1-1.9-2.2c0-1.2,0.7-2.1,2-2.1c1.3,0,1.9,1,1.9,2.2C67.4,60.8,66.7,61.8,65.4,61.7"/>
	<path class="st5" d="M76.2,55.4l0-1.2l-4,0l-0.1,11l4.1,0l0.1-6.8c0.4-0.5,1.6-0.8,2.4-0.8c0.4,0,0.7,0.1,0.9,0.1l0-3.9
		C78.3,53.9,76.9,54.6,76.2,55.4"/>
	<path class="st5" d="M90.8,60.2c0-3.9-2.4-6.2-5.6-6.3c-3.5,0-5.9,2.5-6,5.7c0,3.6,2.6,5.8,6,5.8c1.6,0,3.5-0.4,4.6-1.3l-1.6-2.5
		c-0.5,0.5-1.9,0.8-2.5,0.8c-1.3,0-2.1-0.7-2.3-1.4l7.4,0.1L90.8,60.2z M83.9,58.4c-0.2,0.3-0.6,0.9-0.6,1.8c0,0-0.3-0.9,0.2-2
		c0-0.1,0.1-0.1,0.1-0.2c0.2-0.4,0.7-0.9,1.6-0.9c1.3,0,1.7,0.9,1.8,1.3L83.9,58.4z"/>
	<path class="st5" d="M95.4,55.6l0-1.2l-4,0l-0.1,11l4.1,0l0.1-6.7c0.4-0.5,1.5-0.8,2.4-0.8c0.4,0,0.7,0.1,0.9,0.1l0-3.9
		C97.5,54.1,96.1,54.8,95.4,55.6"/>
	<path class="st5" d="M102.6,57.6c0-0.2,0.4-0.5,1-0.5c1.3,0,2.5,0.6,3.2,1.2l1.5-2.7c-1.3-0.8-2.9-1.4-4.7-1.5
		c-3.2,0-4.9,1.7-4.9,3.7c0,4.6,6.1,3.3,6.1,4.3c0,0.3-0.3,0.5-1.1,0.5c-1.2,0-3-0.7-3.9-1.4L98.2,64c1.2,1,3.3,1.7,5.3,1.7
		c3.2,0,5.2-1.5,5.2-3.7C108.8,57.4,102.6,58.5,102.6,57.6"/>
	<path class="st4" d="M20.7,75.3l0-4.1l1.5,0l0,4.1c0,1,0.5,1.6,1.6,1.6c1,0,1.6-0.6,1.6-1.6l0-4.1l1.5,0l0,4.1c0,1.7-1,2.9-3.1,2.8
		C21.6,78.1,20.6,76.9,20.7,75.3"/>
	<path class="st4" d="M30.6,74.7c0-2.2,1.7-3.5,3.6-3.5c1.4,0,2.3,0.7,2.8,1.6l-1.2,0.6c-0.3-0.5-0.9-0.9-1.6-0.9
		c-1.2,0-2.1,0.9-2.1,2.2c0,1.3,0.9,2.3,2.1,2.3c0.6,0,1.2-0.3,1.4-0.5l0-0.8l-1.8,0l0-1.3l3.2,0l0,2.6c-0.7,0.8-1.7,1.3-2.9,1.3
		C32.2,78.2,30.6,76.8,30.6,74.7"/>
	<polygon class="st4" points="44.7,71.4 42.9,71.3 40.2,78.2 41.9,78.2 42,77.9 43.8,72.8 45.5,77.9 45.6,78.2 47.2,78.2 	"/>
	<polygon class="st4" points="73.6,71.4 71.8,71.3 69.1,78.2 70.7,78.2 70.8,77.9 72.6,72.8 74.3,77.9 74.5,78.2 76.1,78.2 	"/>
	<polygon class="st4" points="55.4,78.3 52.2,73.8 52.1,78.3 50.7,78.3 50.8,71.4 52.3,71.4 55.3,75.8 55.4,71.5 56.8,71.5 
		56.8,78.3 	"/>
	<path class="st4" d="M60.9,78.4l0.1-6.8l2.7,0c2.1,0,3.6,1.4,3.6,3.5c0,2.1-1.5,3.4-3.6,3.4L60.9,78.4z M65.7,75
		c0-1.2-0.7-2.2-2.1-2.2l-1.2,0l0,4.3l1.2,0C64.9,77.1,65.7,76.1,65.7,75"/>
	<path class="st6" d="M72.7,43.7c3.9-0.8,7.5-2.3,11-4c3.5-1.7,6.8-3.7,10-5.9l2.3-1.7c0.4-0.3,0.8-0.6,1.2-0.9l1.1-0.9
		c0.7-0.6,1.5-1.2,2.2-1.9l2.1-2l1.1-1l1-1l2-2.1c1.3-1.4,2.5-2.9,3.8-4.4c-1.3,1.4-2.6,2.9-3.9,4.3l-2.1,2l-1,1l-1.1,1l-2.2,1.9
		c-0.7,0.6-1.5,1.2-2.3,1.8l-1.1,0.9c-0.4,0.3-0.8,0.6-1.2,0.8l-2.4,1.6c-3.2,2.1-6.6,4-10.1,5.5c-3.5,1.5-7.2,2.8-10.8,3.5
		L72.7,43.7z"/>
	<path class="st6" d="M76.7,44.3c0,0,1.7,8.3,14.3,4.1C91,48.4,85.1,40.3,76.7,44.3"/>
	<path class="st6" d="M75.7,39.8c0,0,8.2,1.8,9.4-11.5C85.1,28.4,75.4,30.5,75.7,39.8"/>
	<path class="st6" d="M86.1,35.7c0,0,7.3,0.1,6-11.3C92.2,24.5,84.3,27.9,86.1,35.7"/>
	<path class="st6" d="M95.3,29c0,0,5.2-0.4,3.5-8.5C98.9,20.5,93.4,23.5,95.3,29"/>
	<path class="st6" d="M101.8,24.4c0,0,5.2-0.5,3.5-8.5C105.2,15.9,99.8,18.9,101.8,24.4"/>
	<path class="st6" d="M110.6,16.6c0,0,5.1,1.1,5.8-7.1C116.4,9.5,110.3,10.8,110.6,16.6"/>
	<path class="st6" d="M85.8,40.1c0,0,1.5,7.5,13,3.7C98.8,43.8,93.4,36.4,85.8,40.1"/>
	<path class="st6" d="M93.3,35.4c0,0,1.5,7.5,13,3.7C106.3,39.1,100.9,31.7,93.3,35.4"/>
	<path class="st6" d="M99.7,30.7c0,0,1.3,6.2,10.7,3C110.3,33.7,105.9,27.7,99.7,30.7"/>
	<path class="st6" d="M105.5,26c0,0,1.1,5.3,9.2,2.6C114.6,28.6,110.8,23.4,105.5,26"/>
	<path class="st6" d="M60.7,104.3C33.3,109.8,6.5,92,1,64.6C-4.5,37.2,13.3,10.4,40.7,4.9c17.7-3.6,36.1,2.6,48.1,16.2
		c0.9,1.1,0.8,2.7-0.2,3.6c-1.1,0.9-2.7,0.8-3.6-0.2C74.2,12.3,57.6,6.7,41.7,9.9C17,14.9,1,39,6,63.6c5,24.6,29.1,40.7,53.7,35.7
		c8.4-1.7,16.2-5.7,22.4-11.6c1-1,2.6-0.9,3.6,0.1c1,1,0.9,2.6-0.1,3.6C78.7,97.9,70.1,102.4,60.7,104.3"/>
</g>
</svg>
